HIERARCHY
ROOT Hips
{
  OFFSET 0 0 0
  CHANNELS 6 Xposition Yposition Zposition Zrotation Yrotation Xrotation
  JOINT LeftThigh
  {
    OFFSET 8.409438 0 -5.917753
    CHANNELS 3 Zrotation Yrotation Xrotation
    JOINT LeftLeg
    {
      OFFSET 0 0 -42.358652
      CHANNELS 3 Zrotation Yrotation Xrotation
      JOINT LeftFoot
      {
        OFFSET 0 0 -39.357303
        CHANNELS 3 Zrotation Yrotation Xrotation
      }
    }
  }
  JOINT RightThigh
  {
    OFFSET -8.409438 0 -5.917753
    CHANNELS 3 Zrotation Yrotation Xrotation
    JOINT RightLeg
    {
      OFFSET 0 0 -42.358652
      CHANNELS 3 Zrotation Yrotation Xrotation
      JOINT RightFoot
      {
        OFFSET 0 0 -39.357303
        CHANNELS 3 Zrotation Yrotation Xrotation
      }
    }
  }
  JOINT SpineLow
  {
    OFFSET 0 0 4.719101
    CHANNELS 3 Zrotation Yrotation Xrotation
    JOINT SpineMid
    {
      OFFSET 0 0 12.899191
      CHANNELS 3 Zrotation Yrotation Xrotation
      JOINT Chest
      {
        OFFSET 0 0 12.899191
        CHANNELS 3 Zrotation Yrotation Xrotation
        JOINT LeftShoulder
        {
          OFFSET 7.550562 1.41573 9.438202
          CHANNELS 3 Zrotation Yrotation Xrotation
          JOINT LeftArm
          {
            OFFSET 9.155056 0 4.247191
            CHANNELS 3 Zrotation Yrotation Xrotation
            JOINT LeftForearm
            {
              OFFSET 0 0 25.771955
              CHANNELS 3 Zrotation Yrotation Xrotation
              JOINT LeftHand
              {
                OFFSET 0 0 25.197169
                CHANNELS 3 Zrotation Yrotation Xrotation
              }
            }
          }
        }
        JOINT RightShoulder
        {
          OFFSET -7.550562 1.41573 9.438202
          CHANNELS 3 Zrotation Yrotation Xrotation
          JOINT RightArm
          {
            OFFSET -9.155056 0 4.247191
            CHANNELS 3 Zrotation Yrotation Xrotation
            JOINT RightForearm
            {
              OFFSET 0 0 -25.771955
              CHANNELS 3 Zrotation Yrotation Xrotation
              JOINT RightHand
              {
                OFFSET 0 0 -25.197169
                CHANNELS 3 Zrotation Yrotation Xrotation
              }
            }
          }
        }
        JOINT Neck
        {
          OFFSET 0 0 15.101124
          CHANNELS 3 Zrotation Yrotation Xrotation
          JOINT Head
          {
            OFFSET 0 0 11.325843
            CHANNELS 3 Zrotation Yrotation Xrotation
            End Site
            {
              OFFSET 0 0 14.157303
            }
          }
        }
      }
    }
  }
}
MOTION
Frames: 17
Frame Time: 0.0
0.0  101.685394  0.0  5.13064  12.548834  -102.813885  22.629674  -27.55181  24.963203  -6.022712  14.685553  25.888663  -3.115359  3.512623  -1.069784  -29.941821  13.404995  -38.832431  10.734232  11.018147  46.226352  27.388379  -1.008588  1.985536  -4.716862  1.534153  1.016096  -12.843143  4.372212  2.469781  -12.843144  4.372213  2.469781  13.369631  29.690759  24.576326  110.22972  83.806628  169.172151  -55.425071  -32.278233  90.411328  50.193782  -20.714205  1.621526  29.06118  -7.1279  34.507168  118.653354  32.931584  42.439769  -44.011071  17.761587  -103.585676  82.011549  -5.517391  66.967917  4.701149  -1.102609  -0.728481  3.524444  -0.83262  -0.537899  
0.0  101.685394  0.0  5.01505  12.535245  -102.808694  22.58918  -27.585799  24.923434  -6.033162  14.662608  25.889283  -3.022107  3.525377  -1.038513  -29.975055  13.208525  -38.846432  10.816549  11.095053  46.323792  27.433405  -0.984586  1.943362  -4.724155  1.524162  1.018923  -12.863123  4.345821  2.478901  -12.863122  4.345821  2.478901  13.311131  29.682527  24.486259  110.257196  83.661199  169.183267  -55.469876  -32.332711  90.656413  50.180035  -20.732754  1.433473  29.081259  -7.11745  34.512664  118.592809  33.146622  42.50684  -44.153865  17.703987  -103.812788  82.149591  -5.60343  66.927995  4.66553  -1.130022  -0.794272  3.497573  -0.85364  -0.587098  
0.0  101.685394  0.0  4.886031  12.807977  -102.781987  22.351992  -27.564478  24.781049  -6.13285  14.617225  25.925823  -2.838946  3.565474  -0.998622  -30.075978  13.041209  -38.734568  10.821634  11.140256  46.431706  27.275826  -0.858276  1.83853  -4.753363  1.523493  1.022608  -12.942821  4.345711  2.487092  -12.942821  4.345712  2.487092  12.88105  29.598773  24.321277  111.693102  83.455689  170.517852  -55.516858  -32.34761  90.935264  50.760088  -20.561541  0.897287  28.791822  -7.129123  34.432124  118.622379  33.292063  42.631477  -44.517512  17.715105  -103.945861  82.147364  -5.484773  66.609178  4.568112  -1.134638  -0.917305  3.424278  -0.857894  -0.67952  
0.0  101.685394  0.0  4.792891  12.791832  -102.846514  22.232491  -27.618753  24.83717  -6.091432  14.600601  25.91354  -2.748084  3.590717  -0.940895  -30.038612  12.891075  -38.658646  10.896557  11.279797  46.519337  27.323533  -0.82513  1.772207  -4.758449  1.519986  1.027309  -12.956502  4.337261  2.500234  -12.956502  4.337261  2.500234  12.847928  29.565768  24.302463  112.127685  83.286964  170.909693  -55.554058  -32.360808  91.260593  50.736705  -20.519892  0.68626  28.787276  -7.151169  34.549378  118.565925  33.538617  42.732053  -44.72789  17.690476  -104.217782  82.310456  -5.600687  66.614168  4.524311  -1.178907  -0.979174  3.391235  -0.891489  -0.725673  
0.0  101.685394  0.0  4.638847  12.925827  -102.935879  22.095764  -27.715748  24.746894  -6.250743  14.547978  25.906758  -2.628756  3.645949  -0.877096  -30.107204  12.734279  -38.547255  10.959438  11.34047  46.654244  27.325473  -0.721584  1.687859  -4.775574  1.515738  1.042581  -13.00244  4.329276  2.541514  -13.00244  4.329276  2.541513  12.432583  29.304974  24.080681  114.527179  82.916085  173.219536  -55.591169  -32.246524  91.674605  51.407342  -20.293666  0.050305  28.616449  -7.18787  34.59006  118.574615  33.727471  42.867633  -45.078211  17.69503  -104.469139  82.476537  -5.66619  66.51278  4.418728  -1.20275  -1.114989  3.311742  -0.910184  -0.827566  
0.0  101.685394  0.0  4.539646  12.923736  -102.995817  21.994614  -27.732623  24.771355  -6.184015  14.461011  25.919332  -2.561824  3.68774  -0.815186  -29.937788  12.620843  -38.454488  10.974082  11.484314  46.769524  27.328266  -0.66971  1.614916  -4.789279  1.508191  1.056814  -13.039162  4.312011  2.580837  -13.039163  4.312011  2.580838  12.375758  29.366263  24.024217  114.503764  82.77139  173.077254  -55.656253  -32.231427  92.076444  51.41179  -20.252262  -0.153885  28.605863  -7.16258  34.702738  118.479315  34.048444  42.946651  -45.321886  17.730014  -104.783464  82.709278  -5.832606  66.495455  4.383379  -1.25504  -1.236476  3.28488  -0.95021  -0.918373  
0.0  101.685394  0.0  4.337187  12.887581  -103.144019  21.976957  -27.867162  24.725721  -6.202245  14.337633  25.949254  -2.491475  3.75575  -0.74274  -29.635371  12.481012  -38.240762  10.973352  11.519833  46.960524  27.212402  -0.574917  1.504742  -4.779052  1.494964  1.10205  -13.008483  4.284507  2.707352  -13.008484  4.284507  2.707352  11.882079  29.425639  23.805241  115.018307  82.597368  173.430984  -55.665686  -32.132374  92.605428  51.686693  -20.140384  -0.49089  28.387245  -7.129161  34.697409  118.387149  34.425227  43.041234  -45.529785  17.714947  -105.156962  82.946286  -6.035797  66.424096  4.232337  -1.301517  -1.455716  3.171037  -0.986281  -1.082787  
0.0  101.685394  0.0  4.192005  12.841688  -103.118695  21.935785  -27.888161  24.611455  -6.127583  14.268448  25.984786  -2.449999  3.824763  -0.680979  -29.239228  12.332296  -38.185316  10.895598  11.677147  47.142984  27.16849  -0.57221  1.380984  -4.794864  1.474935  1.123626  -13.050833  4.234838  2.76897  -13.050832  4.234838  2.76897  11.7889  29.57165  23.642391  114.930599  82.49279  173.134867  -55.657574  -32.152462  93.064242  51.586308  -20.254013  -0.719986  28.297927  -7.007607  34.719533  118.371034  34.859006  43.142219  -45.772155  17.674694  -105.530146  83.194995  -6.265954  66.277679  4.197936  -1.375797  -1.643494  3.144627  -1.043203  -1.223178  
0.0  101.685394  0.0  3.970468  12.734623  -103.086094  22.031798  -28.001392  24.355604  -6.218214  14.206638  25.98366  -2.281806  3.926268  -0.590726  -28.700735  12.105844  -38.100348  10.754699  11.804521  47.392185  27.245681  -0.65238  1.232284  -4.80361  1.451034  1.157385  -13.073196  4.176781  2.865019  -13.073196  4.176781  2.865019  11.45828  29.643713  23.325011  115.584408  82.376982  173.458785  -55.571367  -32.249504  93.520696  51.571112  -20.410011  -1.080363  28.148947  -6.894263  34.663011  118.365558  35.415294  43.260945  -45.949436  17.536281  -105.937256  83.459522  -6.517115  66.003726  4.149235  -1.458601  -1.902006  3.107254  -1.106937  -1.4166  
0.0  101.685394  0.0  3.740424  12.496896  -102.934619  22.312686  -28.158955  24.046401  -6.342135  14.216264  25.932762  -2.206065  3.997831  -0.504434  -27.990518  11.7583  -38.106018  10.667792  11.991063  47.671699  27.49017  -1.045494  1.034418  -4.814324  1.407635  1.193422  -13.10143  4.066234  2.970953  -13.10143  4.066234  2.970953  11.336537  29.779546  22.935492  116.245165  82.306303  173.752165  -55.39254  -32.297918  94.086698  51.671233  -20.556122  -1.612844  28.107966  -6.6378  34.53282  118.40655  36.087892  43.378793  -46.177471  17.339233  -106.349631  83.753146  -6.834542  65.559279  4.174908  -1.544434  -2.223403  3.125421  -1.173597  -1.65699  
0.0  101.685394  0.0  3.419986  12.266206  -102.785983  22.270517  -28.096839  23.251598  -6.299512  14.134765  26.21728  -1.780449  4.214995  -0.23755  -27.272032  11.270426  -38.095778  10.341909  12.223238  47.985776  28.193193  -1.086517  0.853672  -4.841101  1.376547  1.232892  -13.173157  3.990594  3.082852  -13.173157  3.990594  3.082852  11.072137  29.705214  22.487144  118.130609  82.240933  175.118916  -55.153931  -32.389112  94.725355  51.921719  -20.574234  -2.352481  28.006489  -6.480267  34.283462  118.499101  36.802776  43.494994  -46.39815  17.098333  -106.854757  84.049505  -7.22187  64.969233  4.268752  -1.683091  -2.578411  3.194299  -1.280427  -1.922022  
0.0  101.685394  0.0  3.160213  11.826304  -102.636689  22.712342  -28.295305  22.925676  -6.546858  14.161485  26.128518  -1.632782  4.301018  -0.136652  -26.302536  10.725567  -38.079819  10.500133  12.397465  48.332054  28.251087  -1.184644  0.632096  -4.819375  1.329666  1.285509  -13.112018  3.872477  3.236688  -13.112018  3.872477  3.236687  10.861354  29.689114  22.071961  119.590797  82.261497  176.214237  -54.862466  -32.423464  95.431115  52.298108  -20.42138  -3.269074  27.848961  -6.170088  34.017768  118.47844  37.698381  43.57367  -46.643182  16.824198  -107.396898  84.408986  -7.670444  64.285204  4.294694  -1.784448  -2.991961  3.212113  -1.359478  -2.231377  
0.0  101.685394  0.0  2.841565  11.191953  -102.649336  22.634677  -28.106334  22.286277  -6.140747  14.041551  26.694745  -1.095777  4.486103  0.117434  -25.089201  10.081258  -37.869626  10.913873  12.485226  48.792876  29.247526  -1.161382  0.465787  -4.776569  1.294442  1.355411  -12.991989  3.788327  3.436527  -12.991989  3.788328  3.436527  10.339388  29.40418  21.581966  122.397695  82.296463  178.384922  -54.589055  -32.378246  96.169122  52.764106  -20.0557  -4.309986  27.783406  -5.961114  33.727831  118.306738  38.758369  43.582373  -46.863635  16.496087  -107.989718  84.879811  -8.168573  63.523834  4.37876  -1.912985  -3.405398  3.273223  -1.459278  -2.540256  
0.0  101.685394  0.0  2.623191  10.559805  -102.544031  23.049604  -28.192555  22.096417  -6.346581  13.996575  26.578659  -0.806353  4.561802  0.232374  -23.911001  9.395376  -37.787876  11.50007  12.530172  49.37674  28.972136  -1.111266  0.064686  -4.738687  1.253846  1.410427  -12.886722  3.686672  3.596442  -12.886722  3.686672  3.596441  10.179827  29.188666  21.205921  123.085924  82.438604  178.727778  -54.439692  -32.2883  96.999638  53.268593  -19.482238  -5.353836  27.579402  -5.614377  33.389586  118.269637  39.942024  43.661371  -47.104859  16.075072  -108.656347  85.486599  -8.758984  62.640317  4.450471  -2.016105  -3.845169  3.324976  -1.540246  -2.869073  
0.0  101.685394  0.0  2.385326  9.74264  -102.457146  23.496927  -28.235145  21.943967  -6.461117  13.872181  26.446606  -0.388787  4.68796  0.411747  -22.673437  8.543523  -37.685297  12.447718  12.382693  50.177889  28.494763  -0.99675  -0.496275  -4.677483  1.221301  1.466684  -12.717454  3.60571  3.759429  -12.717454  3.60571  3.759429  9.734846  28.866822  20.693189  123.838874  82.559441  178.909105  -54.420934  -32.194294  97.97183  53.866771  -18.689613  -6.399402  27.633764  -5.420702  33.059329  117.984165  41.434359  43.790639  -47.404771  15.541266  -109.402025  86.174429  -9.471631  61.573117  4.564425  -2.133074  -4.279239  3.408181  -1.631964  -3.193333  
0.0  101.685394  0.0  2.167763  8.921302  -102.36438  23.916942  -28.248115  21.92217  -6.528296  13.625563  26.184545  -0.109938  4.761423  0.559336  -21.631531  7.576167  -37.61162  12.929504  12.854721  50.809403  29.426063  -0.896977  -0.996425  -4.633708  1.18757  1.527363  -12.595833  3.523037  3.933561  -12.595833  3.523037  3.933561  9.52965  28.503604  20.170761  124.6219  82.714744  179.26965  -54.386792  -32.044327  99.104184  54.555121  -17.661604  -7.451593  27.407624  -5.184208  32.551815  118.132627  42.919249  44.15566  -47.771434  14.889248  -110.232223  86.928252  -10.363674  60.252869  4.717422  -2.253345  -4.7189  3.520454  -1.726673  -3.521568  
0.0  101.685394  0.0  1.94141  8.070191  -102.298957  24.287799  -28.251746  22.038445  -6.55047  13.243403  25.827691  0.123385  4.848045  0.693494  -20.704872  6.548294  -37.531435  13.3365  13.480107  51.349139  30.747537  -0.912322  -1.390737  -4.620952  1.151819  1.595676  -12.558901  3.437919  4.127046  -12.558901  3.437919  4.127046  9.321502  28.098845  19.484716  125.74083  82.941217  179.812581  -54.434398  -31.806593  100.337843  55.244116  -16.385186  -8.443981  27.564707  -4.98274  32.025511  118.084823  44.722069  44.539411  -48.175319  14.155618  -111.072392  87.738061  -11.459374  58.656241  5.029427  -2.327644  -5.165566  3.752188  -1.788532  -3.854788  
